<?xml version="1.0" standalone="no"?><!DOCTYPE svg PUBLIC "-//W3C//DTD SVG 1.1//EN" "http://www.w3.org/Graphics/SVG/1.1/DTD/svg11.dtd"><svg t="1579338948299" class="icon" viewBox="0 0 1024 1024" version="1.1" xmlns="http://www.w3.org/2000/svg" p-id="1916" xmlns:xlink="http://www.w3.org/1999/xlink" width="200" height="200"><defs><style type="text/css"></style></defs><path d="M768 170.666667h-42.666667V128a42.666667 42.666667 0 0 0-85.333333 0v42.666667H384V128a42.666667 42.666667 0 0 0-85.333333 0v42.666667H256a128 128 0 0 0-128 128v512a128 128 0 0 0 128 128h512a128 128 0 0 0 128-128V298.666667a128 128 0 0 0-128-128zM341.333333 725.333333a42.666667 42.666667 0 1 1 42.666667-42.666666 42.666667 42.666667 0 0 1-42.666667 42.666666z m341.333334 0h-170.666667a42.666667 42.666667 0 0 1 0-85.333333h170.666667a42.666667 42.666667 0 0 1 0 85.333333z m128-256H213.333333V298.666667a42.666667 42.666667 0 0 1 42.666667-42.666667h42.666667v42.666667a42.666667 42.666667 0 0 0 85.333333 0V256h256v42.666667a42.666667 42.666667 0 0 0 85.333333 0V256h42.666667a42.666667 42.666667 0 0 1 42.666667 42.666667z" p-id="1917"></path></svg>