<?xml version="1.0" standalone="no"?><!DOCTYPE svg PUBLIC "-//W3C//DTD SVG 1.1//EN" "http://www.w3.org/Graphics/SVG/1.1/DTD/svg11.dtd"><svg t="1577589359176" class="icon" viewBox="0 0 1024 1024" version="1.1" xmlns="http://www.w3.org/2000/svg" p-id="4994" xmlns:xlink="http://www.w3.org/1999/xlink" width="200" height="200"><defs><style type="text/css"></style></defs><path d="M460.8 85.333333c0 10.24 6.826667 17.066667 17.066667 17.066667h68.266666c6.826667 0 13.653333-3.413333 17.066667-10.24 3.413333-6.826667 0-13.653333-3.413333-17.066667L518.826667 34.133333h27.306666c10.24 0 17.066667-6.826667 17.066667-17.066666S556.373333 0 546.133333 0h-68.266666c-6.826667 0-13.653333 3.413333-17.066667 10.24-3.413333 6.826667 0 13.653333 3.413333 17.066667L505.173333 68.266667H477.866667c-10.24 0-17.066667 6.826667-17.066667 17.066666z m170.666667 0c0 10.24 6.826667 17.066667 17.066666 17.066667h68.266667c6.826667 0 13.653333-3.413333 17.066667-10.24 3.413333-6.826667 0-13.653333-3.413334-17.066667L689.493333 34.133333h27.306667c10.24 0 17.066667-6.826667 17.066667-17.066666S727.04 0 716.8 0h-68.266667c-6.826667 0-13.653333 3.413333-17.066666 10.24-3.413333 6.826667 0 13.653333 3.413333 17.066667L675.84 68.266667H648.533333c-10.24 0-17.066667 6.826667-17.066666 17.066666z m235.52 126.293334c-3.413333-3.413333-10.24-6.826667-13.653334-6.826667H170.666667c-3.413333 0-10.24 3.413333-13.653334 6.826667-3.413333 3.413333-3.413333 6.826667-3.413333 10.24L204.8 921.6c0 6.826667 6.826667 13.653333 13.653333 13.653333l307.2 85.333334H535.893333l256-85.333334c6.826667-3.413333 10.24-6.826667 10.24-13.653333l68.266667-699.733333c0-3.413333 0-6.826667-3.413333-10.24zM699.733333 785.066667c0 6.826667-6.826667 13.653333-10.24 13.653333L535.893333 853.333333h-6.826666-3.413334l-153.6-34.133333c-6.826667 0-10.24-6.826667-13.653333-10.24l-34.133333-102.4c-3.413333-10.24 3.413333-17.066667 10.24-20.48 10.24-3.413333 17.066667 3.413333 20.48 10.24l30.72 92.16 139.946666 30.72 139.946667-47.786667 17.066667-191.146666H341.333333c-10.24 0-17.066667-6.826667-17.066666-17.066667s6.826667-17.066667 17.066666-17.066667h344.746667l10.24-136.533333H307.2c-10.24 0-17.066667-6.826667-17.066667-17.066667s6.826667-17.066667 17.066667-17.066666h409.6c3.413333 0 10.24 3.413333 13.653333 6.826666 3.413333 3.413333 3.413333 6.826667 3.413334 13.653334l-34.133334 389.12zM307.2 102.4h68.266667c10.24 0 17.066667-6.826667 17.066666-17.066667S385.706667 68.266667 375.466667 68.266667H324.266667V34.133333H375.466667c10.24 0 17.066667-6.826667 17.066666-17.066666S385.706667 0 375.466667 0H307.2c-10.24 0-17.066667 6.826667-17.066667 17.066667v68.266666c0 10.24 6.826667 17.066667 17.066667 17.066667z" fill="" p-id="4995"></path></svg>