<?xml version="1.0" standalone="no"?><!DOCTYPE svg PUBLIC "-//W3C//DTD SVG 1.1//EN" "http://www.w3.org/Graphics/SVG/1.1/DTD/svg11.dtd"><svg t="1582879727100" class="icon" viewBox="0 0 1024 1024" version="1.1" xmlns="http://www.w3.org/2000/svg" p-id="3930" xmlns:xlink="http://www.w3.org/1999/xlink" width="80" height="80"><defs><style type="text/css"></style></defs><path d="M512 660.3c-10.8 0-14.9-1.2-24.1-5.9l-0.3-0.2-189.2-97.6c-17.3-8.3-28.5-25.9-28.5-45.2 0-19.2 11.2-36.9 28.5-45.2l189.5-97.8c10.8-5.4 18.1-5.9 24.1-5.9s13.3 0.5 24.1 5.9l0.3 0.2 189.5 97.8c17.4 8.8 28.2 26 28.2 45s-10.8 36.2-28.2 45L539 652.9c-9.7 7.4-20 7.4-27 7.4z m-0.3-53.1l0.3 0.1 0.1-0.1 185.6-95.8-185.4-95.7-0.3-0.1-0.3 0.1-185.4 95.7 185.4 95.8z m153.2 333.5H359.1c-48.3 0-87.6-39.3-87.6-87.6v-61.2c0-48.3 39.3-87.6 87.6-87.6H665c48.3 0 87.6 39.3 87.6 87.6v61.2c0 48.3-39.4 87.6-87.7 87.6zM359.1 757.2c-19.1 0-34.7 15.6-34.7 34.7v61.2c0 19.1 15.6 34.7 34.7 34.7H665c19.1 0 34.7-15.6 34.7-34.7v-61.2c0-19.1-15.6-34.7-34.7-34.7H359.1z m0 0" p-id="3931"></path><path d="M603.7 853.1c-18.4 0-30.6-12.2-30.6-30.6 0-18.4 12.2-30.6 30.6-30.6 18.4 0 30.6 12.2 30.6 30.6 0 18.3-12.2 30.6-30.6 30.6M664.9 318.7H359.1c-48.3 0-87.6-39.3-87.6-87.6v-61.2c0-48.3 39.3-87.6 87.6-87.6H665c48.3 0 87.6 39.3 87.6 87.6v61.2c0 48.3-39.4 87.6-87.7 87.6zM359.1 135.2c-19.1 0-34.7 15.6-34.7 34.7v61.2c0 19.1 15.6 34.7 34.7 34.7H665c19.1 0 34.7-15.6 34.7-34.7v-61.2c0-19.1-15.6-34.7-34.7-34.7H359.1z m0 0" p-id="3932"></path><path d="M389.6 200.5c0-18.4 12.2-30.6 30.6-30.6 18.4 0 30.6 12.2 30.6 30.6 0 18.4-12.2 30.6-30.6 30.6-18.3 0-30.6-12.3-30.6-30.6M199.1 537.9H90.7c-14.6 0-26.5-11.8-26.5-26.5 0-14.6 11.8-26.5 26.5-26.5h108.5c14.6 0 26.5 11.8 26.5 26.5-0.1 14.7-11.9 26.5-26.6 26.5z m-27.7-310.1H90.7c-14.6 0-26.5-11.8-26.5-26.5 0-14.6 11.8-26.5 26.5-26.5h80.7c14.6 0 26.5 11.8 26.5 26.5-0.1 14.6-11.9 26.5-26.5 26.5z m0 0" p-id="3933"></path><path d="M90.7 537.9c-14.6 0-26.5-11.8-26.5-26.5V207.3c0-14.6 11.8-26.5 26.5-26.5 14.6 0 26.5 11.8 26.5 26.5v304.2c-0.1 14.6-11.9 26.4-26.5 26.4z m0 0M170 285.6V118.4l83.6 83.6-83.6 83.6z m0 0M932.7 537.9H824.2c-14.6 0-26.5-11.8-26.5-26.5 0-14.6 11.8-26.5 26.5-26.5h108.5c14.6 0 26.5 11.8 26.5 26.5s-11.9 26.5-26.5 26.5z m0 310.2H852c-14.6 0-26.5-11.8-26.5-26.5 0-14.6 11.8-26.5 26.5-26.5h80.7c14.6 0 26.5 11.8 26.5 26.5 0 14.6-11.9 26.5-26.5 26.5z m0 0" p-id="3934"></path><path d="M932.7 842.1c-14.6 0-26.5-11.8-26.5-26.5V511.5c0-14.6 11.8-26.5 26.5-26.5 14.6 0 26.5 11.8 26.5 26.5v304.2c0 14.6-11.9 26.4-26.5 26.4z m0 0M853.3 737.4v167.2L769.7 821l83.6-83.6z m0 0" p-id="3935"></path></svg>