<?xml version="1.0" standalone="no"?><!DOCTYPE svg PUBLIC "-//W3C//DTD SVG 1.1//EN" "http://www.w3.org/Graphics/SVG/1.1/DTD/svg11.dtd"><svg t="1577539055028" class="icon" viewBox="0 0 1024 1024" version="1.1" xmlns="http://www.w3.org/2000/svg" p-id="2618" xmlns:xlink="http://www.w3.org/1999/xlink" width="200" height="200"><defs><style type="text/css"></style></defs><path d="M368.420931 323.987952c0 0 86.823438 2.641153 86.823438 70.243831l0 82.491783c0 0 7.528464 46.697555-39.619346 56.305377-1.178849 0.338714-2.413979 0.505513-3.708462 0.677429-51.361785 7.92346-12.754488 0-12.754488 0l0 29.895891 27.198455 0c0 0 43.88551 1.740644 43.88551 40.45948L274.576589 604.061742c0 0 1.740644-37.874609 40.34794-41.304731l28.099988-0.900509 0-28.094872-14.049994 0c0 0-41.192168-8.767688-41.192168-56.137555l-0.896416-84.293825C286.825564 393.332297 292.952098 326.685387 368.420931 323.987952L368.420931 323.987952 368.420931 323.987952zM567.632041 267.005147l56.08332 0 0 56.982806 167.574576 0 0-56.982806 57.093323 0 0 56.982806 56.978712 0 0-56.982806 55.970756-0.110517 0 112.387673L567.632041 379.282303 567.632041 267.005147 567.632041 267.005147zM961.332728 266.894629l0-69.231781c0 0 8.206916-43.889603-45.462424-43.889603L104.360859 153.773246c0 0-42.143842-2.641153-42.143842 42.144866l0 71.087035L961.332728 266.894629 961.332728 266.894629 961.332728 266.894629zM567.632041 379.282303l56.08332 0 0 57.094346 110.647029 0 0-57.094346 57.884338 0 0 57.094346 113.116267 0 0-57.094346 55.970756 0-0.056282 168.530344-54.958706 0 0-56.19793L623.715361 491.614717l0 56.137555 0 56.254212 0 56.027038L567.632041 660.033521 567.632041 379.282303 567.632041 379.282303zM623.715361 547.752272l337.562109 0 0 237.818407c0 0 2.979868 43.778062-44.505633 43.778062L737.003544 829.348742l0-56.138578 40.346917 0c0 0 15.512299 3.53757 15.228843-29.78435 0 0 6.688329-25.40153-15.228843-26.296923l-138.630361-1.01205c0 0-15.005762 1.795902-15.005762 28.093848 0 0-3.541663 26.414603 14.049994 27.143197l41.302685 0.955768 0 57.039087-55.352679 0L623.714338 547.752272 623.715361 547.752272 623.715361 547.752272zM62.217017 267.005147l111.376647 0 0 393.028375 450.065416 0 0 169.370479L343.024517 829.404l0-56.137555 45.630247 0c0 0 16.629749 8.762571 10.508331-27.987425 0 0 8.762571-28.094872-15.790638-28.094872L244.73698 717.184149c0 0-14.890128-1.01205-14.890128 27.082822 0 0-4.38589 26.41358 14.890128 27.143197l42.147936 1.739621-0.900509 56.143695L106.105596 829.293483c0 0-43.88858 6.122441-43.88858-42.0937L62.217017 267.005147 62.217017 267.005147 62.217017 267.005147zM62.217017 267.005147" p-id="2619"></path></svg>