<?xml version="1.0" standalone="no"?><!DOCTYPE svg PUBLIC "-//W3C//DTD SVG 1.1//EN" "http://www.w3.org/Graphics/SVG/1.1/DTD/svg11.dtd"><svg t="1591845219653" class="icon" viewBox="0 0 1024 1024" version="1.1" xmlns="http://www.w3.org/2000/svg" p-id="1856" xmlns:xlink="http://www.w3.org/1999/xlink" width="200" height="200"><defs><style type="text/css"></style></defs><path d="M443.6992 722.62656V307.2a68.27008 68.27008 0 0 1 136.52992 0v201.32864l185.37472 52.97152c36.096 10.33216 59.5968 48.896 52.23424 85.69856L762.97216 921.6H449.56672L258.92864 730.9312a68.23936 68.23936 0 0 1 0-96.53248 68.25984 68.25984 0 0 1 96.54272 0l88.22784 88.22784z" p-id="1857"></path><path d="M638.07488 359.40352A135.51616 135.51616 0 0 0 648.52992 307.2c0-75.32544-61.1328-136.52992-136.6016-136.52992-75.32544 0-136.45824 61.20448-136.45824 136.52992 0 18.50368 3.75808 36.12672 10.45504 52.23424l-63.1296 26.14272A204.5952 204.5952 0 0 1 307.2 307.2c0-112.9984 91.6992-204.8 204.72832-204.8C625.1008 102.4 716.8 194.2016 716.8 307.2c0 27.77088-5.60128 54.20032-15.59552 78.36672l-63.1296-26.1632zM196.70016 176.59904c-16.70144 40.23296-26.03008 84.3264-26.03008 130.60096s9.32864 90.368 25.99936 130.60096l63.05792-26.10176a272.72192 272.72192 0 0 1 0.04096-208.9984l-63.06816-26.10176zM764.27264 411.66848c13.33248-32.2048 20.79744-67.47136 20.79744-104.46848s-7.46496-72.27392-20.79744-104.46848l63.0272-26.13248c16.70144 40.27392 26.03008 84.3264 26.03008 130.60096s-9.32864 90.32704-25.99936 130.60096l-63.05792-26.13248z" p-id="1858"></path></svg>